<svg width="128" height="128" viewBox="0 0 128 128" fill="none" xmlns="http://www.w3.org/2000/svg">
  <path fill="#CC342D" d="M115.014 44.889c-2.891-1.378-5.409-2.958-8.166-4.025 2.234-2.255 4.245-4.834 5.871-7.768 2.834-5.145 3.864-10.724 2.979-16.287-1.061-6.641-5.084-12.442-10.963-16.013-6.109-3.709-13.323-4.646-20.051-2.834-6.442 1.715-11.989 5.725-15.965 11.139-2.364 3.158-3.939 6.776-4.604 10.586-3.233-.576-6.47-.264-9.588.913-4.035 1.514-7.604 4.157-10.269 7.671-2.512 3.297-4.164 7.162-4.764 11.291-.686 4.663.034 9.394 2.105 13.564 1.58 3.181 3.855 5.948 6.582 8.131-3.53 1.078-6.882 2.536-9.999 4.341-11.223 6.541-18.433 18.229-19.807 31.369-1.446 13.674 4.194 27.314 14.519 36.766 9.962 9.104 23.171 13.392 36.714 12.053 13.025-1.293 24.987-7.474 33.668-17.152 8.387-9.354 13.092-21.514 13.092-33.986 0-11.702-3.902-22.792-11.264-31.93zm-4.24 65.892c-7.476 8.346-17.82 13.229-28.872 13.391-10.831.159-21.07-4.413-28.465-12.63-7.111-8.063-11.105-18.555-11.009-29.284.095-10.728 4.258-21.152 11.367-29.215 7.396-8.218 17.637-12.791 28.468-12.631 11.052.163 21.395 5.045 28.872 13.391 7.734 8.631 12.098 19.868 12.098 31.25-.001 11.382-4.365 22.619-12.459 31.118z"/>
  <path fill="#fff" d="M73.15 105.223c-1.164 0-2.325-.093-3.473-.277-10.136-1.62-18.809-7.594-24.115-16.533-5.306-8.94-6.872-19.445-4.44-29.549 2.432-10.104 8.695-18.814 17.571-24.266 8.876-5.452 19.553-7.196 29.689-5.576 1.148.184 2.275.419 3.375.704.529.138 1.046.296 1.55.474 2.277.795 4.418 1.866 6.376 3.19 2.363 1.592 4.522 3.47 6.426 5.593 2.033 2.264 3.808 4.753 5.291 7.423 1.483 2.67 2.666 5.506 3.527 8.459.862 2.953 1.396 6.009 1.589 9.118.193 3.109.045 6.253-.436 9.337-.481 3.084-1.295 6.093-2.422 8.976-1.127 2.883-2.559 5.623-4.268 8.179-1.709 2.556-3.682 4.915-5.888 7.041-2.206 2.126-4.631 4.006-7.237 5.613-2.606 1.607-5.376 2.932-8.263 3.954-2.887 1.022-5.873 1.734-8.905 2.124-2.926.373-5.883.459-8.823.259zm.033-53.944c-7.364-.001-14.347 2.849-19.648 7.965-5.301 5.116-8.437 12.066-8.75 19.465-.313 7.399 2.633 14.65 8.031 19.943 5.399 5.293 12.571 8.369 20.067 8.37h.032c7.364 0 14.347-2.85 19.648-7.966 5.302-5.115 8.438-12.065 8.75-19.464.313-7.399-2.633-14.65-8.031-19.943-5.399-5.293-12.571-8.368-20.068-8.37z"/>
  <path fill="#9E0404" d="M74.898 87.393c1.816.29 3.652.234 5.447-.165 1.795-.399 3.524-1.136 5.112-2.186 2.384-1.567 4.353-3.61 5.768-6.004 1.415-2.394 2.241-5.069 2.411-7.815.17-2.746-.319-5.496-1.422-8.068-1.103-2.572-2.789-4.897-4.944-6.823-1.501-1.35-3.214-2.398-5.063-3.106-1.849-.708-3.803-1.065-5.772-1.055-1.816-.029-3.618.229-5.351.761-1.734.532-3.376 1.329-4.867 2.362-2.224 1.552-4.004 3.537-5.185 5.846-1.181 2.309-1.733 4.864-1.602 7.421.131 2.557.889 5.048 2.117 7.274 1.228 2.226 2.893 4.131 4.874 5.582 1.484 1.08 3.151 1.914 4.934 2.47 1.783.556 3.657.826 5.541.8z"/>
</svg>
